<?xml version="1.0" standalone="no"?>
<!DOCTYPE svg PUBLIC "-//W3C//DTD SVG 20010904//EN"
 "http://www.w3.org/TR/2001/REC-SVG-20010904/DTD/svg10.dtd">
<svg version="1.0" xmlns="http://www.w3.org/2000/svg"
 width="512.000000pt" height="512.000000pt" viewBox="0 0 512.000000 512.000000"
 preserveAspectRatio="xMidYMid meet">
<metadata>
Created by potrace 1.11, written by Peter Selinger 2001-2013
</metadata>
<g transform="translate(0.000000,512.000000) scale(0.100000,-0.100000)"
fill="#000000" stroke="none">
<path d="M3187 4802 c-44 -152 -64 -262 -73 -401 -2 -41 -5 -76 -7 -77 -1 -2
-272 -274 -602 -604 l-599 -600 -51 7 c-79 12 -361 9 -455 -5 -86 -13 -174
-33 -242 -53 l-36 -12 404 -403 c222 -222 404 -406 404 -410 0 -4 -270 -277
-601 -608 l-601 -601 -73 -220 c-40 -121 -72 -221 -70 -223 2 -2 61 16 132 39
70 24 133 44 138 45 6 2 47 16 93 31 l82 28 604 605 603 605 404 -406 c222
-224 407 -405 411 -403 5 3 39 132 53 205 3 16 15 99 21 154 11 92 3 346 -12
397 -3 11 174 195 600 622 l606 606 57 0 c113 0 412 59 479 94 20 10 -39 72
-811 843 l-832 832 -26 -87z"/>
</g>
</svg>
